<?xml version="1.0" standalone="no"?>
<!DOCTYPE svg PUBLIC "-//W3C//DTD SVG 20010904//EN"
 "http://www.w3.org/TR/2001/REC-SVG-20010904/DTD/svg10.dtd">
<svg version="1.0" xmlns="http://www.w3.org/2000/svg"
 width="580.000000pt" height="178.000000pt" viewBox="0 0 580.000000 178.000000"
 preserveAspectRatio="xMidYMid meet">

<g transform="translate(0.000000,178.000000) scale(0.100000,-0.100000)"
fill="#000000" stroke="none">
<path d="M2741 1540 c-144 -30 -256 -95 -306 -175 -28 -45 -30 -56 -30 -140 0
-84 2 -95 30 -141 38 -62 126 -122 226 -155 68 -22 90 -24 259 -24 164 0 193
3 257 23 97 30 190 94 228 156 28 46 30 57 30 141 0 84 -2 95 -30 140 -39 63
-119 118 -220 151 -71 24 -98 27 -240 30 -88 2 -180 -1 -204 -6z m425 -44 c44
-14 101 -41 125 -58 l44 -33 -47 -3 c-46 -3 -62 -14 -35 -25 21 -8 37 -78 37
-166 0 -91 -18 -150 -50 -158 -26 -7 -25 -28 2 -47 22 -15 22 -15 -13 -30
-104 -43 -152 -51 -314 -50 -146 0 -167 2 -242 27 -44 15 -92 36 -105 47 l-23
19 37 1 c54 0 93 45 46 52 -39 5 -58 60 -58 168 0 65 5 104 15 124 8 15 15 30
15 32 0 1 -21 4 -47 6 l-48 3 43 32 c89 66 214 93 402 89 112 -3 149 -8 216
-30z"/>
<path d="M2819 1410 c-52 -10 -118 -25 -145 -33 l-49 -14 -3 -84 c-5 -137 17
-224 34 -134 3 19 10 35 14 35 5 0 35 -27 69 -59 67 -67 108 -84 202 -84 54 0
126 23 140 45 6 9 27 22 76 49 27 14 53 5 60 -21 13 -48 23 -13 23 78 0 124
-12 172 -44 172 -13 0 -45 10 -72 21 -56 25 -148 49 -184 47 -14 0 -68 -9
-121 -18z m227 -16 c61 -18 89 -32 100 -50 9 -13 24 -24 34 -24 22 0 38 -40
42 -100 l2 -45 -39 0 c-22 0 -50 4 -63 8 -20 8 -21 7 -12 -18 22 -57 6 -59
-54 -10 -55 45 -67 45 -27 0 54 -61 32 -99 -25 -44 -19 18 -34 28 -34 22 0 -6
7 -16 15 -23 18 -15 20 -50 3 -50 -6 0 -22 10 -34 21 l-23 21 6 -21 c8 -33
-13 -25 -52 18 -19 21 -50 44 -68 51 -17 8 -39 19 -48 27 -9 7 -40 21 -69 31
-44 15 -55 24 -62 48 -4 16 -5 43 -2 60 5 29 11 33 77 53 71 21 127 27 127 14
0 -3 -12 -21 -26 -40 -14 -19 -23 -41 -20 -48 8 -22 66 -18 96 5 14 11 33 20
43 20 30 0 73 -27 103 -65 28 -34 31 -35 62 -24 l33 11 -48 23 c-27 12 -60 35
-73 51 -35 41 -95 41 -128 2 -25 -30 -82 -40 -82 -15 0 20 10 26 28 20 13 -6
13 -8 -4 -15 -19 -8 -19 -8 0 -5 24 3 34 27 11 27 -15 0 -14 5 7 32 16 21 39
36 69 44 24 6 46 12 48 13 2 0 41 -11 87 -25z m-306 -244 c0 -5 -4 -10 -10
-10 -5 0 -10 5 -10 10 0 6 5 10 10 10 6 0 10 -4 10 -10z m56 -14 c3 -8 12 -12
20 -9 7 3 17 -2 20 -11 3 -9 14 -16 24 -16 16 0 30 -18 30 -41 0 -5 -7 -9 -15
-9 -8 0 -15 7 -15 15 0 12 -5 13 -17 7 -22 -12 -43 -5 -43 14 0 8 -6 14 -14
14 -18 0 -39 27 -31 40 9 15 35 12 41 -4z"/>
<path d="M3967 582 c-4 -103 -7 -233 -7 -289 l0 -103 70 0 69 0 3 77 3 77 62
-97 62 -97 54 38 54 37 -59 88 -60 89 37 55 37 56 -23 18 c-27 20 -78 44 -83
38 -2 -2 -24 -35 -50 -74 l-48 -70 7 162 7 162 -24 5 c-13 3 -41 7 -64 10
l-41 6 -6 -188z"/>
<path d="M3020 586 c-29 -94 -56 -174 -59 -178 -4 -4 -22 64 -40 152 -38 177
-30 166 -119 172 -36 3 -43 1 -48 -17 -52 -206 -82 -307 -87 -290 -3 11 -23
83 -43 160 -20 77 -38 143 -40 147 -4 6 -140 -36 -152 -47 -1 -1 32 -113 75
-248 l77 -247 86 0 87 0 28 130 c16 72 32 125 36 118 4 -7 17 -61 29 -120 13
-59 26 -111 29 -117 7 -10 158 -37 165 -30 7 8 176 532 173 536 -2 2 -35 14
-74 27 l-70 24 -53 -172z"/>
<path d="M1553 719 l-53 -20 0 -254 c0 -231 1 -253 18 -260 9 -4 62 -9 118
-12 166 -9 238 25 290 139 69 151 9 335 -132 403 -58 29 -175 31 -241 4z m204
-125 c61 -30 89 -97 72 -173 -18 -80 -77 -121 -155 -107 l-34 7 0 144 0 145
41 0 c23 0 57 -7 76 -16z"/>
<path d="M3793 565 c-19 -8 -33 -10 -35 -4 -2 6 -29 7 -71 3 l-67 -7 0 -72 c0
-39 3 -127 7 -193 l6 -122 41 6 c94 12 86 2 86 118 0 89 3 107 21 130 15 19
30 26 54 26 25 0 38 7 57 33 40 53 41 55 11 70 -46 23 -76 27 -110 12z"/>
<path d="M3320 564 c-41 -17 -94 -62 -112 -98 -47 -91 -9 -207 82 -254 36 -19
57 -23 105 -20 145 9 223 141 165 276 -29 66 -76 95 -160 99 -36 1 -72 0 -80
-3z m114 -125 c20 -15 26 -29 26 -57 0 -43 -7 -55 -37 -71 -32 -16 -57 -14
-87 10 -20 16 -26 29 -26 60 0 72 67 103 124 58z"/>
<path d="M2095 534 c-74 -38 -123 -121 -112 -190 22 -133 131 -204 241 -156
44 20 46 20 46 2 0 -14 11 -20 51 -25 27 -4 53 -4 57 0 4 3 8 87 10 185 l4
179 -23 5 c-55 12 -109 11 -109 -1 0 -9 -9 -8 -35 3 -45 18 -92 18 -130 -2z
m145 -104 c25 -25 26 -80 3 -109 -47 -56 -133 -24 -133 50 0 50 27 79 75 79
22 0 43 -8 55 -20z"/>
</g>
</svg>
